<mxfile host="app.diagrams.net" modified="2024-02-07T03:00:59.269Z" agent="Mozilla/5.0 (Windows NT 10.0; Win64; x64) AppleWebKit/537.36 (KHTML, like Gecko) Chrome/122.0.0.0 Safari/537.36 Edg/122.0.0.0" version="23.1.1" etag="Azjb3DKYugkCB0u68NKO" type="github">
  <diagram id="sM4I3jX4hoVVW6KOLBf2" name="Page-1">
    <mxGraphModel dx="2009" dy="1710" grid="1" gridSize="10" guides="1" tooltips="1" connect="1" arrows="1" fold="1" page="1" pageScale="1" pageWidth="850" pageHeight="1100" math="0" shadow="0">
      <root>
        <mxCell id="0" />
        <mxCell id="1" parent="0" />
        <mxCell id="el3v450CjuvMq8LSbT_c-1" value="motion picture" style="html=1;overflow=block;blockSpacing=1;whiteSpace=wrap;fontSize=18.3;fontColor=#3a414a;spacing=9;strokeColor=#3a414a;strokeOpacity=100;rounded=1;absoluteArcSize=1;arcSize=9;strokeWidth=0.8;lucidId=EhC.puBz8QKm;" vertex="1" parent="1">
          <mxGeometry x="226" y="39" width="149" height="90" as="geometry" />
        </mxCell>
        <mxCell id="el3v450CjuvMq8LSbT_c-2" value="id" style="html=1;overflow=block;blockSpacing=1;whiteSpace=wrap;fontSize=20;fontColor=#3a414a;fontStyle=4;spacing=3.8;strokeColor=#3a414a;strokeOpacity=100;rounded=1;absoluteArcSize=1;arcSize=9;strokeWidth=0.8;lucidId=EhC.K002xcMy;" vertex="1" parent="1">
          <mxGeometry x="-103" y="-42" width="101" height="48" as="geometry" />
        </mxCell>
        <mxCell id="el3v450CjuvMq8LSbT_c-3" value="name" style="html=1;overflow=block;blockSpacing=1;whiteSpace=wrap;fontSize=18.3;fontColor=#3a414a;spacing=3.8;strokeColor=#3a414a;strokeOpacity=100;rounded=1;absoluteArcSize=1;arcSize=9;strokeWidth=0.8;lucidId=EhC.Za-9YmAU;" vertex="1" parent="1">
          <mxGeometry x="17" y="-42" width="101" height="48" as="geometry" />
        </mxCell>
        <mxCell id="el3v450CjuvMq8LSbT_c-4" value="production" style="html=1;overflow=block;blockSpacing=1;whiteSpace=wrap;fontSize=18.3;fontColor=#3a414a;spacing=3.8;strokeColor=#3a414a;strokeOpacity=100;rounded=1;absoluteArcSize=1;arcSize=9;strokeWidth=0.8;lucidId=EhC.SkmI63rg;" vertex="1" parent="1">
          <mxGeometry x="137" y="-42" width="101" height="48" as="geometry" />
        </mxCell>
        <mxCell id="el3v450CjuvMq8LSbT_c-5" value="release date" style="html=1;overflow=block;blockSpacing=1;whiteSpace=wrap;fontSize=18.3;fontColor=#3a414a;spacing=3.8;strokeColor=#3a414a;strokeOpacity=100;rounded=1;absoluteArcSize=1;arcSize=9;strokeWidth=0.8;lucidId=EhC.e631Bg8s;" vertex="1" parent="1">
          <mxGeometry x="257" y="-42" width="101" height="48" as="geometry" />
        </mxCell>
        <mxCell id="el3v450CjuvMq8LSbT_c-6" value="budget" style="html=1;overflow=block;blockSpacing=1;whiteSpace=wrap;fontSize=18.3;fontColor=#3a414a;spacing=3.8;strokeColor=#3a414a;strokeOpacity=100;rounded=1;absoluteArcSize=1;arcSize=9;strokeWidth=0.8;lucidId=EhC.gpTw17Wh;" vertex="1" parent="1">
          <mxGeometry x="380" y="-42" width="101" height="48" as="geometry" />
        </mxCell>
        <mxCell id="el3v450CjuvMq8LSbT_c-7" value="rating" style="html=1;overflow=block;blockSpacing=1;whiteSpace=wrap;fontSize=18.3;fontColor=#3a414a;spacing=3.8;strokeColor=#3a414a;strokeOpacity=100;rounded=1;absoluteArcSize=1;arcSize=9;strokeWidth=0.8;lucidId=EhC.i43d71ts;" vertex="1" parent="1">
          <mxGeometry x="503" y="-42" width="101" height="48" as="geometry" />
        </mxCell>
        <mxCell id="el3v450CjuvMq8LSbT_c-8" value="has genre" style="html=1;overflow=block;blockSpacing=1;whiteSpace=wrap;rhombus;fontSize=16.7;fontColor=#3a414a;spacing=3.8;strokeColor=#3a414a;strokeOpacity=100;rounded=1;absoluteArcSize=1;arcSize=9;strokeWidth=0.8;lucidId=EhC.QZZ1NWxO;" vertex="1" parent="1">
          <mxGeometry x="47" y="78" width="105" height="75" as="geometry" />
        </mxCell>
        <mxCell id="el3v450CjuvMq8LSbT_c-9" value="genre" style="html=1;overflow=block;blockSpacing=1;whiteSpace=wrap;fontSize=18.3;fontColor=#3a414a;spacing=9;strokeColor=#3a414a;strokeOpacity=100;rounded=1;absoluteArcSize=1;arcSize=9;strokeWidth=0.8;lucidId=EhC.2TelQr3l;" vertex="1" parent="1">
          <mxGeometry x="-148" y="55" width="149" height="90" as="geometry" />
        </mxCell>
        <mxCell id="el3v450CjuvMq8LSbT_c-10" value="id" style="html=1;overflow=block;blockSpacing=1;whiteSpace=wrap;fontSize=20;fontColor=#3a414a;fontStyle=4;spacing=3.8;strokeColor=#3a414a;strokeOpacity=100;rounded=1;absoluteArcSize=1;arcSize=9;strokeWidth=0.8;lucidId=EhC._s6o4LGN;" vertex="1" parent="1">
          <mxGeometry x="-283" y="3" width="101" height="48" as="geometry" />
        </mxCell>
        <mxCell id="el3v450CjuvMq8LSbT_c-11" value="name" style="html=1;overflow=block;blockSpacing=1;whiteSpace=wrap;fontSize=18.3;fontColor=#3a414a;spacing=3.8;strokeColor=#3a414a;strokeOpacity=100;rounded=1;absoluteArcSize=1;arcSize=9;strokeWidth=0.8;lucidId=EhC..8Grq90Z;" vertex="1" parent="1">
          <mxGeometry x="-283" y="81" width="101" height="48" as="geometry" />
        </mxCell>
        <mxCell id="el3v450CjuvMq8LSbT_c-12" value="description" style="html=1;overflow=block;blockSpacing=1;whiteSpace=wrap;fontSize=18.3;fontColor=#3a414a;spacing=3.8;strokeColor=#3a414a;strokeOpacity=100;rounded=1;absoluteArcSize=1;arcSize=9;strokeWidth=0.8;lucidId=EhC.vAgzzkB6;" vertex="1" parent="1">
          <mxGeometry x="-283" y="155" width="101" height="48" as="geometry" />
        </mxCell>
        <mxCell id="el3v450CjuvMq8LSbT_c-13" value="ISA" style="html=1;overflow=block;blockSpacing=1;whiteSpace=wrap;shape=mxgraph.basic.acute_triangle;dx=0.5;anchorPointDirection=0;fontSize=16.7;fontColor=#3a414a;spacing=3.8;strokeColor=#3a414a;strokeOpacity=100;rounded=1;absoluteArcSize=1;arcSize=9;strokeWidth=0.8;lucidId=EhC.fMM-BYXl;" vertex="1" parent="1">
          <mxGeometry x="184" y="228" width="115" height="90" as="geometry" />
        </mxCell>
        <mxCell id="el3v450CjuvMq8LSbT_c-14" value="movie" style="html=1;overflow=block;blockSpacing=1;whiteSpace=wrap;fontSize=18.3;fontColor=#3a414a;spacing=9;strokeColor=#3a414a;strokeOpacity=100;rounded=1;absoluteArcSize=1;arcSize=9;strokeWidth=0.8;lucidId=EhC.wCg-WKs.;" vertex="1" parent="1">
          <mxGeometry x="77" y="381" width="149" height="90" as="geometry" />
        </mxCell>
        <mxCell id="el3v450CjuvMq8LSbT_c-15" value="series" style="html=1;overflow=block;blockSpacing=1;whiteSpace=wrap;fontSize=18.3;fontColor=#3a414a;spacing=9;strokeColor=#3a414a;strokeOpacity=100;rounded=1;absoluteArcSize=1;arcSize=9;strokeWidth=0.8;lucidId=EhC.DiEWmnb3;" vertex="1" parent="1">
          <mxGeometry x="257" y="381" width="149" height="90" as="geometry" />
        </mxCell>
        <mxCell id="el3v450CjuvMq8LSbT_c-16" value="seasons" style="html=1;overflow=block;blockSpacing=1;whiteSpace=wrap;fontSize=18.3;fontColor=#3a414a;spacing=3.8;strokeColor=#3a414a;strokeOpacity=100;rounded=1;absoluteArcSize=1;arcSize=9;strokeWidth=0.8;lucidId=EhC.XMe3hi0Y;" vertex="1" parent="1">
          <mxGeometry x="287" y="483" width="101" height="48" as="geometry" />
        </mxCell>
        <mxCell id="el3v450CjuvMq8LSbT_c-17" value="" style="html=1;jettySize=18;whiteSpace=wrap;fontSize=13;strokeColor=#3a414a;strokeOpacity=100;strokeWidth=0.8;rounded=0;startArrow=none;endArrow=none;exitX=0.5;exitY=-0.008;exitPerimeter=0;entryX=0.541;entryY=1.004;entryPerimeter=0;lucidId=EhC.ZKdA8h4V;" edge="1" parent="1" source="el3v450CjuvMq8LSbT_c-16" target="el3v450CjuvMq8LSbT_c-15">
          <mxGeometry width="100" height="100" relative="1" as="geometry">
            <Array as="points" />
          </mxGeometry>
        </mxCell>
        <mxCell id="el3v450CjuvMq8LSbT_c-18" value="box office" style="html=1;overflow=block;blockSpacing=1;whiteSpace=wrap;fontSize=18.3;fontColor=#3a414a;spacing=3.8;strokeColor=#3a414a;strokeOpacity=100;rounded=1;absoluteArcSize=1;arcSize=9;strokeWidth=0.8;lucidId=EhC.fizSg1F4;" vertex="1" parent="1">
          <mxGeometry x="101" y="483" width="101" height="48" as="geometry" />
        </mxCell>
        <mxCell id="el3v450CjuvMq8LSbT_c-19" value="" style="html=1;jettySize=18;whiteSpace=wrap;fontSize=13;strokeColor=#3a414a;strokeOpacity=100;strokeWidth=0.8;rounded=0;startArrow=none;endArrow=none;exitX=0.5;exitY=-0.008;exitPerimeter=0;entryX=0.5;entryY=1.004;entryPerimeter=0;lucidId=EhC.VP9mOlVg;" edge="1" parent="1" source="el3v450CjuvMq8LSbT_c-18" target="el3v450CjuvMq8LSbT_c-14">
          <mxGeometry width="100" height="100" relative="1" as="geometry">
            <Array as="points" />
          </mxGeometry>
        </mxCell>
        <mxCell id="el3v450CjuvMq8LSbT_c-20" value="involved with" style="html=1;overflow=block;blockSpacing=1;whiteSpace=wrap;rhombus;fontSize=16.7;fontColor=#3a414a;spacing=3.8;strokeColor=#3a414a;strokeOpacity=100;rounded=1;absoluteArcSize=1;arcSize=9;strokeWidth=0.8;lucidId=EhC.Q1qjVrm5;" vertex="1" parent="1">
          <mxGeometry x="452" y="78" width="105" height="75" as="geometry" />
        </mxCell>
        <mxCell id="el3v450CjuvMq8LSbT_c-21" value="" style="html=1;jettySize=18;whiteSpace=wrap;fontSize=13;strokeColor=#3a414a;strokeOpacity=100;strokeWidth=0.8;rounded=0;startArrow=none;endArrow=none;exitX=0.049;exitY=0.444;exitPerimeter=0;entryX=1.003;entryY=0.573;entryPerimeter=0;lucidId=EhC.aDPgynu~;" edge="1" parent="1" source="el3v450CjuvMq8LSbT_c-8" target="el3v450CjuvMq8LSbT_c-9">
          <mxGeometry width="100" height="100" relative="1" as="geometry">
            <Array as="points" />
          </mxGeometry>
        </mxCell>
        <mxCell id="el3v450CjuvMq8LSbT_c-22" value="person" style="html=1;overflow=block;blockSpacing=1;whiteSpace=wrap;fontSize=18.3;fontColor=#3a414a;spacing=9;strokeColor=#3a414a;strokeOpacity=100;rounded=1;absoluteArcSize=1;arcSize=9;strokeWidth=0.8;lucidId=EhC.wSKpIc.s;" vertex="1" parent="1">
          <mxGeometry x="602" y="93" width="149" height="90" as="geometry" />
        </mxCell>
        <mxCell id="el3v450CjuvMq8LSbT_c-23" value="id" style="html=1;overflow=block;blockSpacing=1;whiteSpace=wrap;fontSize=20;fontColor=#3a414a;fontStyle=4;spacing=3.8;strokeColor=#3a414a;strokeOpacity=100;rounded=1;absoluteArcSize=1;arcSize=9;strokeWidth=0.8;lucidId=EhC._QKX56Lp;" vertex="1" parent="1">
          <mxGeometry x="797" y="-18" width="101" height="48" as="geometry" />
        </mxCell>
        <mxCell id="el3v450CjuvMq8LSbT_c-24" value="name" style="html=1;overflow=block;blockSpacing=1;whiteSpace=wrap;fontSize=18.3;fontColor=#3a414a;spacing=3.8;strokeColor=#3a414a;strokeOpacity=100;rounded=1;absoluteArcSize=1;arcSize=9;strokeWidth=0.8;lucidId=EhC.zysOP_Ow;" vertex="1" parent="1">
          <mxGeometry x="797" y="46" width="101" height="48" as="geometry" />
        </mxCell>
        <mxCell id="el3v450CjuvMq8LSbT_c-25" value="nationality" style="html=1;overflow=block;blockSpacing=1;whiteSpace=wrap;fontSize=18.3;fontColor=#3a414a;spacing=3.8;strokeColor=#3a414a;strokeOpacity=100;rounded=1;absoluteArcSize=1;arcSize=9;strokeWidth=0.8;lucidId=EhC.w.58bNZ2;" vertex="1" parent="1">
          <mxGeometry x="797" y="117" width="101" height="48" as="geometry" />
        </mxCell>
        <mxCell id="el3v450CjuvMq8LSbT_c-26" value="dob" style="html=1;overflow=block;blockSpacing=1;whiteSpace=wrap;fontSize=18.3;fontColor=#3a414a;spacing=3.8;strokeColor=#3a414a;strokeOpacity=100;rounded=1;absoluteArcSize=1;arcSize=9;strokeWidth=0.8;lucidId=EhC.PedF_u0f;" vertex="1" parent="1">
          <mxGeometry x="797" y="182" width="101" height="48" as="geometry" />
        </mxCell>
        <mxCell id="el3v450CjuvMq8LSbT_c-27" value="gender" style="html=1;overflow=block;blockSpacing=1;whiteSpace=wrap;fontSize=18.3;fontColor=#3a414a;spacing=3.8;strokeColor=#3a414a;strokeOpacity=100;rounded=1;absoluteArcSize=1;arcSize=9;strokeWidth=0.8;lucidId=EhC.qQ7s1gyy;" vertex="1" parent="1">
          <mxGeometry x="797" y="246" width="101" height="48" as="geometry" />
        </mxCell>
        <mxCell id="el3v450CjuvMq8LSbT_c-28" value="" style="html=1;jettySize=18;whiteSpace=wrap;fontSize=13;strokeColor=#3a414a;strokeOpacity=100;strokeWidth=0.8;rounded=0;startArrow=none;endArrow=none;exitX=-0.003;exitY=0.391;exitPerimeter=0;entryX=0.928;entryY=0.578;entryPerimeter=0;lucidId=EhC.a0eCgye7;" edge="1" parent="1" source="el3v450CjuvMq8LSbT_c-22" target="el3v450CjuvMq8LSbT_c-20">
          <mxGeometry width="100" height="100" relative="1" as="geometry">
            <Array as="points" />
          </mxGeometry>
        </mxCell>
        <mxCell id="el3v450CjuvMq8LSbT_c-29" value="" style="html=1;jettySize=18;whiteSpace=wrap;fontSize=13;strokeColor=#3a414a;strokeOpacity=100;strokeWidth=0.8;rounded=0;startArrow=none;endArrow=none;exitX=0.084;exitY=0.41;exitPerimeter=0;entryX=1.003;entryY=0.629;entryPerimeter=0;lucidId=EhC.yviJO4~V;" edge="1" parent="1" source="el3v450CjuvMq8LSbT_c-20" target="el3v450CjuvMq8LSbT_c-1">
          <mxGeometry width="100" height="100" relative="1" as="geometry">
            <Array as="points" />
          </mxGeometry>
        </mxCell>
        <mxCell id="el3v450CjuvMq8LSbT_c-30" value="role" style="html=1;overflow=block;blockSpacing=1;whiteSpace=wrap;fontSize=18.3;fontColor=#3a414a;spacing=3.8;strokeColor=#3a414a;strokeOpacity=100;rounded=1;absoluteArcSize=1;arcSize=9;strokeWidth=0.8;lucidId=EhC.efyC4Qk-;" vertex="1" parent="1">
          <mxGeometry x="512" y="30" width="101" height="48" as="geometry" />
        </mxCell>
        <mxCell id="el3v450CjuvMq8LSbT_c-31" value="" style="html=1;jettySize=18;whiteSpace=wrap;fontSize=13;strokeColor=#3a414a;strokeOpacity=100;strokeWidth=0.8;rounded=0;startArrow=none;endArrow=none;exitX=0.272;exitY=1.008;exitPerimeter=0;entryX=0.704;entryY=0.198;entryPerimeter=0;lucidId=EhC.6O76i-IB;" edge="1" parent="1" source="el3v450CjuvMq8LSbT_c-30" target="el3v450CjuvMq8LSbT_c-20">
          <mxGeometry width="100" height="100" relative="1" as="geometry">
            <Array as="points" />
          </mxGeometry>
        </mxCell>
        <mxCell id="el3v450CjuvMq8LSbT_c-32" value="" style="html=1;jettySize=18;whiteSpace=wrap;fontSize=13;strokeColor=#3a414a;strokeOpacity=100;strokeWidth=0.8;rounded=0;startArrow=none;endArrow=none;exitX=0.194;exitY=0.999;exitPerimeter=0;entryX=0.894;entryY=-0.004;entryPerimeter=0;lucidId=EhC.ArO0ruCg;" edge="1" parent="1" source="el3v450CjuvMq8LSbT_c-23" target="el3v450CjuvMq8LSbT_c-22">
          <mxGeometry width="100" height="100" relative="1" as="geometry">
            <Array as="points" />
          </mxGeometry>
        </mxCell>
        <mxCell id="el3v450CjuvMq8LSbT_c-33" value="" style="html=1;jettySize=18;whiteSpace=wrap;fontSize=13;strokeColor=#3a414a;strokeOpacity=100;strokeWidth=0.8;rounded=0;startArrow=none;endArrow=none;exitX=0.068;exitY=0.861;exitPerimeter=0;entryX=1.003;entryY=0.17;entryPerimeter=0;lucidId=EhC.6OOZB6zs;" edge="1" parent="1" source="el3v450CjuvMq8LSbT_c-24" target="el3v450CjuvMq8LSbT_c-22">
          <mxGeometry width="100" height="100" relative="1" as="geometry">
            <Array as="points" />
          </mxGeometry>
        </mxCell>
        <mxCell id="el3v450CjuvMq8LSbT_c-34" value="" style="html=1;jettySize=18;whiteSpace=wrap;fontSize=13;strokeColor=#3a414a;strokeOpacity=100;strokeWidth=0.8;rounded=0;startArrow=none;endArrow=none;exitX=-0.003;exitY=0.481;exitPerimeter=0;entryX=1.003;entryY=0.515;entryPerimeter=0;lucidId=EhC.wpX7sT0E;" edge="1" parent="1" source="el3v450CjuvMq8LSbT_c-25" target="el3v450CjuvMq8LSbT_c-22">
          <mxGeometry width="100" height="100" relative="1" as="geometry">
            <Array as="points" />
          </mxGeometry>
        </mxCell>
        <mxCell id="el3v450CjuvMq8LSbT_c-35" value="" style="html=1;jettySize=18;whiteSpace=wrap;fontSize=13;strokeColor=#3a414a;strokeOpacity=100;strokeWidth=0.8;rounded=0;startArrow=none;endArrow=none;exitX=0.068;exitY=0.14;exitPerimeter=0;entryX=1.003;entryY=0.829;entryPerimeter=0;lucidId=EhC.YfRu-2Yf;" edge="1" parent="1" source="el3v450CjuvMq8LSbT_c-26" target="el3v450CjuvMq8LSbT_c-22">
          <mxGeometry width="100" height="100" relative="1" as="geometry">
            <Array as="points" />
          </mxGeometry>
        </mxCell>
        <mxCell id="el3v450CjuvMq8LSbT_c-36" value="" style="html=1;jettySize=18;whiteSpace=wrap;fontSize=13;strokeColor=#3a414a;strokeOpacity=100;strokeWidth=0.8;rounded=0;startArrow=none;endArrow=none;exitX=0.194;exitY=0.001;exitPerimeter=0;entryX=0.894;entryY=1.004;entryPerimeter=0;lucidId=EhC.5wpvCMhJ;" edge="1" parent="1" source="el3v450CjuvMq8LSbT_c-27" target="el3v450CjuvMq8LSbT_c-22">
          <mxGeometry width="100" height="100" relative="1" as="geometry">
            <Array as="points" />
          </mxGeometry>
        </mxCell>
        <mxCell id="el3v450CjuvMq8LSbT_c-37" value="" style="html=1;jettySize=18;whiteSpace=wrap;fontSize=13;strokeColor=#3a414a;strokeOpacity=100;strokeWidth=0.8;rounded=0;startArrow=none;endArrow=none;exitX=0.585;exitY=0.163;exitPerimeter=0;entryX=0.405;entryY=1.004;entryPerimeter=0;lucidId=EhC.kqgDdxPG;" edge="1" parent="1" source="el3v450CjuvMq8LSbT_c-13" target="el3v450CjuvMq8LSbT_c-1">
          <mxGeometry width="100" height="100" relative="1" as="geometry">
            <Array as="points" />
          </mxGeometry>
        </mxCell>
        <mxCell id="el3v450CjuvMq8LSbT_c-38" value="" style="html=1;jettySize=18;whiteSpace=wrap;fontSize=13;strokeColor=#3a414a;strokeOpacity=100;strokeWidth=0.8;rounded=0;startArrow=none;endArrow=none;exitX=0.321;exitY=-0.004;exitPerimeter=0;entryX=0.727;entryY=1.004;entryPerimeter=0;lucidId=EhC.t0iPB0GW;" edge="1" parent="1" source="el3v450CjuvMq8LSbT_c-15" target="el3v450CjuvMq8LSbT_c-13">
          <mxGeometry width="100" height="100" relative="1" as="geometry">
            <Array as="points" />
          </mxGeometry>
        </mxCell>
        <mxCell id="el3v450CjuvMq8LSbT_c-39" value="" style="html=1;jettySize=18;whiteSpace=wrap;fontSize=13;strokeColor=#3a414a;strokeOpacity=100;strokeWidth=0.8;rounded=0;startArrow=none;endArrow=none;exitX=0.679;exitY=-0.004;exitPerimeter=0;entryX=0.273;entryY=1.004;entryPerimeter=0;lucidId=EhC.oX0Ukwf7;" edge="1" parent="1" source="el3v450CjuvMq8LSbT_c-14" target="el3v450CjuvMq8LSbT_c-13">
          <mxGeometry width="100" height="100" relative="1" as="geometry">
            <Array as="points" />
          </mxGeometry>
        </mxCell>
        <mxCell id="el3v450CjuvMq8LSbT_c-40" value="" style="html=1;jettySize=18;whiteSpace=wrap;fontSize=13;strokeColor=#3a414a;strokeOpacity=100;strokeWidth=0.8;rounded=0;startArrow=none;endArrow=none;exitX=0.071;exitY=0.866;exitPerimeter=0;entryX=1.003;entryY=0.164;entryPerimeter=0;lucidId=EhC.ntxs.3hi;" edge="1" parent="1" source="el3v450CjuvMq8LSbT_c-7" target="el3v450CjuvMq8LSbT_c-1">
          <mxGeometry width="100" height="100" relative="1" as="geometry">
            <Array as="points" />
          </mxGeometry>
        </mxCell>
        <mxCell id="el3v450CjuvMq8LSbT_c-41" value="" style="html=1;jettySize=18;whiteSpace=wrap;fontSize=13;strokeColor=#3a414a;strokeOpacity=100;strokeWidth=0.8;rounded=0;startArrow=none;endArrow=none;exitX=0.198;exitY=1.001;exitPerimeter=0;entryX=0.887;entryY=-0.004;entryPerimeter=0;lucidId=EhC.kO9CQ1EZ;" edge="1" parent="1" source="el3v450CjuvMq8LSbT_c-6" target="el3v450CjuvMq8LSbT_c-1">
          <mxGeometry width="100" height="100" relative="1" as="geometry">
            <Array as="points" />
          </mxGeometry>
        </mxCell>
        <mxCell id="el3v450CjuvMq8LSbT_c-42" value="" style="html=1;jettySize=18;whiteSpace=wrap;fontSize=13;strokeColor=#3a414a;strokeOpacity=100;strokeWidth=0.8;rounded=0;startArrow=none;endArrow=none;exitX=0.484;exitY=1.008;exitPerimeter=0;entryX=0.52;entryY=-0.004;entryPerimeter=0;lucidId=EhC.v1WA4PZ-;" edge="1" parent="1" source="el3v450CjuvMq8LSbT_c-5" target="el3v450CjuvMq8LSbT_c-1">
          <mxGeometry width="100" height="100" relative="1" as="geometry">
            <Array as="points" />
          </mxGeometry>
        </mxCell>
        <mxCell id="el3v450CjuvMq8LSbT_c-43" value="" style="html=1;jettySize=18;whiteSpace=wrap;fontSize=13;strokeColor=#3a414a;strokeOpacity=100;strokeWidth=0.8;rounded=0;startArrow=none;endArrow=none;exitX=0.767;exitY=1.008;exitPerimeter=0;entryX=0.163;entryY=-0.004;entryPerimeter=0;lucidId=EhC._cAc9qpq;" edge="1" parent="1" source="el3v450CjuvMq8LSbT_c-4" target="el3v450CjuvMq8LSbT_c-1">
          <mxGeometry width="100" height="100" relative="1" as="geometry">
            <Array as="points" />
          </mxGeometry>
        </mxCell>
        <mxCell id="el3v450CjuvMq8LSbT_c-44" value="" style="html=1;jettySize=18;whiteSpace=wrap;fontSize=13;strokeColor=#3a414a;strokeOpacity=100;strokeWidth=0.8;rounded=0;startArrow=none;endArrow=none;exitX=0.918;exitY=0.886;exitPerimeter=0;entryX=-0.003;entryY=0.136;entryPerimeter=0;lucidId=EhC.~PX~m6hv;" edge="1" parent="1" source="el3v450CjuvMq8LSbT_c-3" target="el3v450CjuvMq8LSbT_c-1">
          <mxGeometry width="100" height="100" relative="1" as="geometry">
            <Array as="points" />
          </mxGeometry>
        </mxCell>
        <mxCell id="el3v450CjuvMq8LSbT_c-45" value="" style="html=1;jettySize=18;whiteSpace=wrap;fontSize=13;strokeColor=#3a414a;strokeOpacity=100;strokeWidth=0.8;rounded=0;startArrow=none;endArrow=none;exitX=0.963;exitY=0.782;exitPerimeter=0;entryX=-0.003;entryY=0.259;entryPerimeter=0;lucidId=EhC.LYM6Cz-I;" edge="1" parent="1" source="el3v450CjuvMq8LSbT_c-2" target="el3v450CjuvMq8LSbT_c-1">
          <mxGeometry width="100" height="100" relative="1" as="geometry">
            <Array as="points" />
          </mxGeometry>
        </mxCell>
        <mxCell id="el3v450CjuvMq8LSbT_c-46" value="" style="html=1;jettySize=18;whiteSpace=wrap;fontSize=13;strokeColor=#3a414a;strokeOpacity=100;strokeWidth=0.8;rounded=0;startArrow=none;endArrow=none;exitX=0.902;exitY=0.085;exitPerimeter=0;entryX=-0.003;entryY=0.908;entryPerimeter=0;lucidId=EhC..xSdvPob;" edge="1" parent="1" source="el3v450CjuvMq8LSbT_c-12" target="el3v450CjuvMq8LSbT_c-9">
          <mxGeometry width="100" height="100" relative="1" as="geometry">
            <Array as="points" />
          </mxGeometry>
        </mxCell>
        <mxCell id="el3v450CjuvMq8LSbT_c-47" value="" style="html=1;jettySize=18;whiteSpace=wrap;fontSize=13;strokeColor=#3a414a;strokeOpacity=100;strokeWidth=0.8;rounded=0;startArrow=none;endArrow=none;exitX=1.003;exitY=0.469;exitPerimeter=0;entryX=-0.003;entryY=0.524;entryPerimeter=0;lucidId=EhC.CjuC4o-6;" edge="1" parent="1" source="el3v450CjuvMq8LSbT_c-11" target="el3v450CjuvMq8LSbT_c-9">
          <mxGeometry width="100" height="100" relative="1" as="geometry">
            <Array as="points" />
          </mxGeometry>
        </mxCell>
        <mxCell id="el3v450CjuvMq8LSbT_c-48" value="" style="html=1;jettySize=18;whiteSpace=wrap;fontSize=13;strokeColor=#3a414a;strokeOpacity=100;strokeWidth=0.8;rounded=0;startArrow=none;endArrow=none;exitX=0.911;exitY=0.899;exitPerimeter=0;entryX=-0.003;entryY=0.117;entryPerimeter=0;lucidId=EhC.XsnihJmt;" edge="1" parent="1" source="el3v450CjuvMq8LSbT_c-10" target="el3v450CjuvMq8LSbT_c-9">
          <mxGeometry width="100" height="100" relative="1" as="geometry">
            <Array as="points" />
          </mxGeometry>
        </mxCell>
        <mxCell id="el3v450CjuvMq8LSbT_c-49" value="" style="html=1;jettySize=18;whiteSpace=wrap;fontSize=13;strokeColor=#3a414a;strokeOpacity=100;strokeWidth=0.8;rounded=0;startArrow=none;endArrow=none;exitX=0.915;exitY=0.409;exitPerimeter=0;entryX=-0.003;entryY=0.63;entryPerimeter=0;lucidId=EhC.sKnL1zXp;" edge="1" parent="1" source="el3v450CjuvMq8LSbT_c-8" target="el3v450CjuvMq8LSbT_c-1">
          <mxGeometry width="100" height="100" relative="1" as="geometry">
            <Array as="points" />
          </mxGeometry>
        </mxCell>
        <mxCell id="el3v450CjuvMq8LSbT_c-50" value="won award" style="html=1;overflow=block;blockSpacing=1;whiteSpace=wrap;rhombus;fontSize=16.7;fontColor=#3a414a;spacing=3.8;strokeColor=#3a414a;strokeOpacity=100;rounded=1;absoluteArcSize=1;arcSize=9;strokeWidth=3.8;lucidId=EhC.Hkq8IfsG;" vertex="1" parent="1">
          <mxGeometry x="422" y="183" width="105" height="75" as="geometry" />
        </mxCell>
        <mxCell id="el3v450CjuvMq8LSbT_c-51" value="award" style="html=1;overflow=block;blockSpacing=1;whiteSpace=wrap;fontSize=18.3;fontColor=#3a414a;spacing=9;strokeColor=#3a414a;strokeOpacity=100;rounded=1;absoluteArcSize=1;arcSize=9;strokeWidth=3.8;lucidId=EhC.j_HUIlur;" vertex="1" parent="1">
          <mxGeometry x="587" y="242" width="149" height="90" as="geometry" />
        </mxCell>
        <mxCell id="el3v450CjuvMq8LSbT_c-52" value="" style="html=1;jettySize=18;whiteSpace=wrap;fontSize=13;strokeColor=#3a414a;strokeOpacity=100;strokeWidth=3;rounded=0;startArrow=none;exitX=-0.013;exitY=0.199;exitPerimeter=0;entryX=0.855;entryY=0.676;entryPerimeter=0;lucidId=EhC.tVhlT~P_;" edge="1" parent="1" source="el3v450CjuvMq8LSbT_c-51" target="el3v450CjuvMq8LSbT_c-50">
          <mxGeometry width="100" height="100" relative="1" as="geometry">
            <Array as="points" />
          </mxGeometry>
        </mxCell>
        <mxCell id="el3v450CjuvMq8LSbT_c-53" value="" style="html=1;jettySize=18;whiteSpace=wrap;fontSize=13;strokeColor=#3a414a;strokeOpacity=100;strokeWidth=0.8;rounded=0;startArrow=none;endArrow=none;exitX=-0.003;exitY=0.84;exitPerimeter=0;entryX=0.838;entryY=0.307;entryPerimeter=0;lucidId=EhC.1EsKoWqu;" edge="1" parent="1" source="el3v450CjuvMq8LSbT_c-22" target="el3v450CjuvMq8LSbT_c-50">
          <mxGeometry width="100" height="100" relative="1" as="geometry">
            <Array as="points" />
          </mxGeometry>
        </mxCell>
        <mxCell id="el3v450CjuvMq8LSbT_c-54" value="" style="html=1;jettySize=18;whiteSpace=wrap;fontSize=13;strokeColor=#3a414a;strokeOpacity=100;strokeWidth=0.8;rounded=0;startArrow=none;endArrow=none;exitX=0.887;exitY=1.004;exitPerimeter=0;entryX=0.247;entryY=0.222;entryPerimeter=0;lucidId=EhC.ZwT7tfKE;" edge="1" parent="1" source="el3v450CjuvMq8LSbT_c-1" target="el3v450CjuvMq8LSbT_c-50">
          <mxGeometry width="100" height="100" relative="1" as="geometry">
            <Array as="points" />
          </mxGeometry>
        </mxCell>
        <mxCell id="el3v450CjuvMq8LSbT_c-57" value="" style="html=1;jettySize=18;whiteSpace=wrap;fontSize=13;strokeColor=#3a414a;strokeOpacity=100;strokeWidth=0.8;rounded=0;startArrow=none;endArrow=none;exitX=0.442;exitY=-0.008;exitPerimeter=0;entryX=0.576;entryY=1.021;entryPerimeter=0;lucidId=EhC.K92keKf.;" edge="1" parent="1" source="el3v450CjuvMq8LSbT_c-55" target="el3v450CjuvMq8LSbT_c-51">
          <mxGeometry width="100" height="100" relative="1" as="geometry">
            <Array as="points" />
          </mxGeometry>
        </mxCell>
        <mxCell id="el3v450CjuvMq8LSbT_c-58" value="" style="html=1;jettySize=18;whiteSpace=wrap;fontSize=13;strokeColor=#3a414a;strokeOpacity=100;strokeWidth=0.8;rounded=0;startArrow=none;endArrow=none;exitX=0.066;exitY=0.143;exitPerimeter=0;entryX=1.013;entryY=0.831;entryPerimeter=0;lucidId=EhC.dW-oipTZ;" edge="1" parent="1" source="el3v450CjuvMq8LSbT_c-56" target="el3v450CjuvMq8LSbT_c-51">
          <mxGeometry width="100" height="100" relative="1" as="geometry">
            <Array as="points" />
          </mxGeometry>
        </mxCell>
        <mxCell id="el3v450CjuvMq8LSbT_c-61" value="" style="group" vertex="1" connectable="0" parent="1">
          <mxGeometry x="752" y="318" width="101" height="48" as="geometry" />
        </mxCell>
        <mxCell id="el3v450CjuvMq8LSbT_c-62" value="" style="group" vertex="1" connectable="0" parent="el3v450CjuvMq8LSbT_c-61">
          <mxGeometry width="101" height="48" as="geometry" />
        </mxCell>
        <mxCell id="el3v450CjuvMq8LSbT_c-56" value="" style="html=1;overflow=block;blockSpacing=1;whiteSpace=wrap;fontSize=18.3;fontColor=#3a414a;spacing=3.8;strokeColor=#3a414a;strokeOpacity=100;rounded=1;absoluteArcSize=1;arcSize=9;strokeWidth=0.8;lucidId=EhC.pvXhTuE7;fontStyle=0" vertex="1" parent="el3v450CjuvMq8LSbT_c-62">
          <mxGeometry width="101" height="48" as="geometry" />
        </mxCell>
        <mxCell id="el3v450CjuvMq8LSbT_c-59" value="&lt;u style=&quot;border-bottom: 1px dashed rgb(0, 0, 0); text-decoration: none; font-size: 17px;&quot;&gt;year&lt;/u&gt;" style="text;html=1;strokeColor=none;fillColor=none;align=center;verticalAlign=middle;whiteSpace=wrap;rounded=0;fontSize=17;" vertex="1" parent="el3v450CjuvMq8LSbT_c-62">
          <mxGeometry x="20.5" y="9" width="60" height="30" as="geometry" />
        </mxCell>
        <mxCell id="el3v450CjuvMq8LSbT_c-65" value="" style="group" vertex="1" connectable="0" parent="1">
          <mxGeometry x="632" y="348" width="101" height="48" as="geometry" />
        </mxCell>
        <mxCell id="el3v450CjuvMq8LSbT_c-55" value="" style="html=1;overflow=block;blockSpacing=1;whiteSpace=wrap;fontSize=18.3;fontColor=#3a414a;spacing=3.8;strokeColor=#3a414a;strokeOpacity=100;rounded=1;absoluteArcSize=1;arcSize=9;strokeWidth=0.8;lucidId=EhC.j7B.kK.m;fontStyle=4" vertex="1" parent="el3v450CjuvMq8LSbT_c-65">
          <mxGeometry width="101" height="48" as="geometry" />
        </mxCell>
        <mxCell id="el3v450CjuvMq8LSbT_c-60" value="&lt;u style=&quot;border-bottom: 1px dashed rgb(0, 0, 0); text-decoration: none; font-size: 17px;&quot;&gt;name&lt;/u&gt;" style="text;html=1;strokeColor=none;fillColor=none;align=center;verticalAlign=middle;whiteSpace=wrap;rounded=0;fontSize=17;" vertex="1" parent="el3v450CjuvMq8LSbT_c-65">
          <mxGeometry x="20.5" y="9" width="60" height="30" as="geometry" />
        </mxCell>
      </root>
    </mxGraphModel>
  </diagram>
</mxfile>
